<svg width="15" height="15" viewBox="0 0 15 15" fill="none" xmlns="http://www.w3.org/2000/svg">
<path d="M10.1962 7.50037L14.7775 12.0818C15.0752 12.3794 15.0752 12.8626 14.7775 13.1602L13.161 14.7768C12.8634 15.0744 12.3809 15.0744 12.0825 14.7768L7.50038 10.1954L2.91823 14.7768C2.62062 15.0744 2.13813 15.0744 1.84052 14.7768L0.223208 13.1602C-0.0744025 12.8626 -0.0744025 12.3801 0.223208 12.0818L4.80535 7.50037L0.223208 2.91823C-0.0744025 2.62062 -0.0744025 2.13738 0.223208 1.83977L1.84127 0.223208C2.13888 -0.0744025 2.62137 -0.0744025 2.91898 0.223208L7.50038 4.80535L12.0825 0.223208C12.3801 -0.0744025 12.8626 -0.0744025 13.161 0.223208L14.7775 1.84052C15.0752 2.13813 15.0752 2.62062 14.7775 2.91898L10.1962 7.50037Z" fill="black"/>
</svg>
