<svg width="30" height="30" viewBox="0 0 30 30" fill="none" xmlns="http://www.w3.org/2000/svg">
<g id="&#225;&#131;&#147;&#225;&#131;&#144;&#225;&#131;&#155;&#225;&#131;&#144;&#225;&#131;&#154;&#225;&#131;&#149;&#225;&#131;&#152;&#225;&#131;&#161; &#225;&#131;&#166;&#225;&#131;&#152;&#225;&#131;&#154;&#225;&#131;&#144;&#225;&#131;&#153;&#225;&#131;&#152;">
<path id="Vector" d="M5 5L25 25" stroke="black" stroke-width="2" stroke-linecap="round"/>
<path id="Vector_2" fill-rule="evenodd" clip-rule="evenodd" d="M7.77885 7.04665C5.24015 8.61653 3.25086 10.9892 2.16468 13.8093C1.86958 14.5755 1.86958 15.4245 2.16468 16.1907C4.14861 21.3416 9.14551 25 15 25C18.0275 25 20.8257 24.0216 23.0966 22.3644L21.3025 20.5702C19.5041 21.7886 17.3347 22.5 15 22.5C10.2135 22.5 6.1223 19.5104 4.49762 15.2921C4.42527 15.1044 4.42527 14.8956 4.49762 14.7079C5.45913 12.2114 7.28457 10.1453 9.60675 8.87455L7.77885 7.04665ZM11.8494 11.1172C10.721 12.034 9.99996 13.4327 9.99996 15C9.99996 17.7614 12.2385 20 15 20C16.5671 20 17.966 19.279 18.8827 18.1505L17.0957 16.3635C16.6496 17.0478 15.8776 17.5 15 17.5C13.6192 17.5 12.5 16.3807 12.5 15C12.5 14.1224 12.9522 13.3502 13.6364 12.9042L11.8494 11.1172ZM19.9534 15.6856L14.3144 10.0466C14.5385 10.0159 14.7674 10 15 10C17.7614 10 20 12.2386 20 15C20 15.2326 19.9841 15.4615 19.9534 15.6856ZM23.2097 18.942C24.1922 17.8939 24.9765 16.6574 25.5022 15.2921C25.5746 15.1044 25.5746 14.8956 25.5022 14.7079C23.8776 10.4897 19.7864 7.5 15 7.5C14.0102 7.5 13.0502 7.62783 12.1356 7.86791L10.1482 5.88046C11.6568 5.31141 13.2919 5 15 5C20.8544 5 25.8512 8.65835 27.8352 13.8093C28.1304 14.5755 28.1304 15.4245 27.8352 16.1907C27.183 17.8842 26.205 19.4164 24.978 20.7102L23.2097 18.942Z" fill="black"/>
</g>
</svg>
