<svg width="62" height="62" viewBox="0 0 62 62" fill="none" xmlns="http://www.w3.org/2000/svg">
<path d="M31 61C47.5685 61 61 47.5685 61 31C61 14.4315 47.5685 1 31 1C14.4315 1 1 14.4315 1 31C1 47.5685 14.4315 61 31 61Z" fill="white" stroke="#5BB651" stroke-width="2" stroke-miterlimit="10"/>
<path d="M19.3299 20.25L17.2999 19.6L15.5199 22.16L16.8399 23.84L15.7199 25.45L10.3799 18.05L11.6499 16.23L20.4499 18.65L19.3299 20.25ZM13.8099 18.45C13.6799 18.41 13.4999 18.35 13.2999 18.28C13.0899 18.21 12.8799 18.15 12.6699 18.07C12.4599 17.99 12.2699 17.93 12.1199 17.88C12.2299 18 12.3599 18.16 12.5199 18.35C12.6699 18.54 12.8199 18.72 12.9599 18.89C13.0999 19.06 13.1999 19.18 13.2499 19.26L14.5399 20.9L15.8099 19.07L13.8099 18.45Z" fill="black"/>
<path d="M24.35 11.57L27.56 10.47L29 14.67C28.62 14.96 28.22 15.22 27.79 15.46C27.36 15.7 26.85 15.92 26.27 16.12C25.47 16.39 24.73 16.47 24.06 16.34C23.39 16.22 22.8 15.89 22.3 15.37C21.8 14.85 21.39 14.13 21.08 13.23C20.79 12.38 20.7 11.59 20.82 10.86C20.94 10.13 21.25 9.48002 21.76 8.93002C22.27 8.37002 22.98 7.94003 23.89 7.63003C24.32 7.48003 24.76 7.38001 25.21 7.33001C25.66 7.28001 26.08 7.27003 26.47 7.31003L26.37 8.88003C26.08 8.84003 25.76 8.83003 25.41 8.85003C25.06 8.88003 24.72 8.95004 24.37 9.07004C23.87 9.24004 23.48 9.50001 23.19 9.86001C22.9 10.22 22.73 10.63 22.67 11.11C22.61 11.59 22.68 12.11 22.87 12.67C23.05 13.2 23.28 13.64 23.57 14C23.85 14.36 24.19 14.6 24.58 14.73C24.97 14.85 25.41 14.83 25.91 14.66C26.15 14.58 26.35 14.5 26.52 14.41C26.68 14.33 26.83 14.25 26.96 14.17L26.38 12.48L24.85 13L24.35 11.57Z" fill="black"/>
<path d="M37.7098 7.65002C38.4498 7.88002 39.0398 8.15004 39.4598 8.48004C39.8898 8.81004 40.1598 9.19003 40.2898 9.62003C40.4198 10.06 40.3998 10.55 40.2298 11.1C40.1198 11.48 39.9398 11.78 39.7198 12.02C39.4898 12.26 39.2298 12.44 38.9398 12.56C38.6498 12.68 38.3498 12.77 38.0398 12.81L39.3698 17.11L37.4398 16.52L36.4398 12.78L35.5098 12.5L34.5498 15.65L32.8198 15.12L35.3098 6.92004L37.7098 7.65002ZM37.1498 9.04004L36.6198 8.88004L35.9498 11.1L36.5098 11.27C37.0798 11.44 37.5198 11.47 37.8298 11.36C38.1398 11.24 38.3498 11 38.4598 10.62C38.5398 10.36 38.5398 10.13 38.4698 9.94003C38.3998 9.75003 38.2498 9.58002 38.0298 9.43002C37.8198 9.28002 37.5298 9.15004 37.1498 9.04004Z" fill="black"/>
<path d="M49.5799 22.52C49.0399 22.91 48.5099 23.2001 47.9799 23.3901C47.4499 23.5801 46.9199 23.65 46.4099 23.61C45.8999 23.57 45.4099 23.41 44.9299 23.11C44.4599 22.82 44.0199 22.39 43.6099 21.82C43.1999 21.26 42.9299 20.71 42.7999 20.16C42.6699 19.62 42.6599 19.1 42.7799 18.6C42.8999 18.1 43.1299 17.6301 43.4699 17.1701C43.8099 16.7201 44.2499 16.29 44.7899 15.9C45.5099 15.38 46.2199 15.0401 46.9199 14.8901C47.6199 14.7401 48.2999 14.8 48.9499 15.07C49.5999 15.34 50.1999 15.86 50.7499 16.61C51.2999 17.36 51.5999 18.08 51.6599 18.78C51.7199 19.48 51.5699 20.14 51.2099 20.77C50.8399 21.42 50.2999 21.99 49.5799 22.52ZM45.8999 17.46C45.4199 17.81 45.0399 18.18 44.7799 18.56C44.5199 18.94 44.3899 19.32 44.3899 19.72C44.3899 20.12 44.5399 20.5201 44.8399 20.9201C45.1499 21.3401 45.4899 21.61 45.8599 21.73C46.2299 21.85 46.6399 21.84 47.0699 21.71C47.5099 21.57 47.9699 21.33 48.4499 20.98C49.1799 20.45 49.6499 19.89 49.8699 19.32C50.0799 18.75 49.9699 18.15 49.5099 17.53C49.2099 17.12 48.8699 16.85 48.4899 16.73C48.1099 16.61 47.7099 16.61 47.2699 16.74C46.8499 16.87 46.3799 17.11 45.8999 17.46Z" fill="black"/>
<path d="M12.4601 46.71L11.3401 45.2899L16.8901 40.9299L15.4501 39.0999L16.6401 38.1699L20.6401 43.2599L19.4501 44.1899L18.0101 42.3599L12.4601 46.71Z" fill="black"/>
<path d="M25.0702 54.7L20.4402 52.9899L23.4102 44.95L28.0402 46.6599L27.5202 48.0599L24.5902 46.9799L23.9402 48.7499L26.6602 49.7599L26.1402 51.1599L23.4202 50.15L22.6502 52.2199L25.5802 53.2999L25.0702 54.7Z" fill="black"/>
<path d="M35.53 47.53C35.19 47.6 34.91 47.7399 34.68 47.9299C34.45 48.1199 34.27 48.3599 34.14 48.6399C34.01 48.9299 33.94 49.2499 33.93 49.6199C33.92 49.9899 33.96 50.3999 34.05 50.8299C34.18 51.4199 34.36 51.9099 34.6 52.2999C34.84 52.6899 35.13 52.9599 35.49 53.1099C35.85 53.2599 36.27 53.2799 36.76 53.1799C37.1 53.0999 37.44 52.9899 37.76 52.8399C38.08 52.6899 38.43 52.4999 38.8 52.2699L39.12 53.7599C38.79 53.9899 38.45 54.1799 38.1 54.3299C37.76 54.4799 37.36 54.5999 36.91 54.6999C36.05 54.8899 35.3 54.8599 34.67 54.6299C34.03 54.3999 33.51 53.9899 33.11 53.3999C32.71 52.8099 32.41 52.0899 32.22 51.2299C32.08 50.5999 32.04 49.9999 32.1 49.4299C32.16 48.8699 32.31 48.3499 32.56 47.8999C32.81 47.4399 33.15 47.0599 33.6 46.7399C34.04 46.4199 34.58 46.1999 35.21 46.0599C35.62 45.9699 36.05 45.9299 36.49 45.9499C36.93 45.9599 37.36 46.0199 37.78 46.1199L37.52 47.6899C37.18 47.6099 36.83 47.5499 36.49 47.5099C36.16 47.4499 35.84 47.46 35.53 47.53Z" fill="black"/>
<path d="M51.5202 44.46L50.3202 45.8199L47.5502 43.3699L45.3002 45.9099L48.0702 48.3599L46.8702 49.7199L40.4502 44.0399L41.6502 42.6799L44.1702 44.9099L46.4202 42.3699L43.9002 40.14L45.1002 38.78L51.5202 44.46Z" fill="black"/>
<path d="M32.5479 24.1707L31.6338 25.2078L33.0752 29.0398L33.4268 28.8464L32.126 25.3835L33.0576 24.3113L33.2861 24.408L32.3984 25.4363L33.6289 28.7146C33.6992 28.6619 33.7402 28.6296 33.752 28.6179L34.042 28.3718C34.2178 28.2312 34.3291 28.1316 34.376 28.073C34.5283 28.741 34.7627 29.3386 35.0791 29.866C34.9092 29.8542 34.7861 29.8484 34.71 29.8484C34.1533 29.8484 33.7461 29.9363 33.4883 30.1121L35.0791 34.4275L36.3975 35.447H31.959L33.1719 34.4275L32.1963 31.8611C31.5518 32.5115 31.0566 33.1296 30.7109 33.7156L30.5088 33.6628C30.8545 33.0886 31.3701 32.447 32.0557 31.738L32.126 31.6501L31.959 31.2634C31.2617 31.8435 30.6846 32.5173 30.2275 33.2849L30.0693 33.03C29.7646 32.5437 29.375 31.99 28.9004 31.3689L28.8125 31.2634C28.3613 32.2654 28.1357 33.0798 28.1357 33.7068C28.1357 34.0759 28.1973 34.3894 28.3203 34.6472C28.4492 34.8992 28.7539 35.324 29.2344 35.9216C29.2754 35.9744 29.3398 36.0564 29.4277 36.1677H24.6816L24.5059 35.9304H28.9795L28.8301 35.7458C28.4434 35.2771 28.1885 34.9138 28.0654 34.656C27.9482 34.3923 27.8896 34.0847 27.8896 33.7332C27.8896 33.1355 28.1328 32.2449 28.6191 31.0613L28.2324 30.657C28.1562 30.8445 28.0596 31.1199 27.9424 31.4832L27.6523 32.3796C27.4941 32.8601 27.415 33.2585 27.415 33.575C27.415 33.9031 27.4707 34.1755 27.582 34.3923C27.6934 34.6091 27.9277 34.905 28.2852 35.28C28.3203 35.3152 28.373 35.3708 28.4434 35.447H24.0488C24.8867 35.0134 25.5488 34.4304 26.0352 33.698C26.5273 32.9656 27.0137 31.8347 27.4941 30.3054L27.5293 30.1824C27.2188 29.9187 26.7705 29.7576 26.1846 29.699C26.5068 29.2185 26.7559 28.7175 26.9316 28.196C27.0137 28.2722 27.0635 28.3191 27.0811 28.3367L27.4766 28.7058C27.6113 28.8347 27.7725 28.9666 27.96 29.1013L28.1182 28.7146L28.0127 28.6267C27.7197 28.3689 27.4736 28.1609 27.2744 28.0027L27.1953 27.9412L27.3359 27.7478C27.6465 27.9529 27.9453 28.1902 28.2324 28.4597L29.4277 25.1726L28.4961 24.1707H32.5479ZM30.377 26.9919L29.4102 29.5408C29.4629 29.5994 29.4922 29.6345 29.498 29.6462L29.8584 30.0505C30.0518 30.2615 30.2979 30.5896 30.5967 31.0349L30.6846 31.1667C30.9365 30.8503 31.2354 30.5369 31.5811 30.2263L30.377 26.9919ZM29.9814 25.9724L28.584 29.6638C29.0293 30.1208 29.4131 30.572 29.7354 31.0173L30.1396 31.5798C30.1455 31.5857 30.1748 31.6238 30.2275 31.6941C30.2803 31.6414 30.3096 31.6091 30.3154 31.5974L30.4385 31.448C30.4561 31.4246 30.4883 31.3865 30.5352 31.3337C30.125 30.7009 29.6475 30.1296 29.1025 29.6199L30.2275 26.6492L29.9814 25.9724ZM35.1494 28.4949C35.2783 29.0222 35.6006 29.7458 36.1162 30.6658C35.9873 30.6482 35.9141 30.6394 35.8965 30.6394L35.1846 30.5779C34.8623 30.5486 34.6279 30.5339 34.4814 30.5339C34.458 30.5339 34.3994 30.5369 34.3057 30.5427L35.7734 34.4363L37.7334 36.1677H32.6445L32.4775 35.9304H37.1445L35.5625 34.533L33.998 30.3933C34.1973 30.3406 34.4258 30.3142 34.6836 30.3142C35 30.3142 35.3516 30.3406 35.7383 30.3933L35.6328 30.2C35.2578 29.5085 35.0059 28.8845 34.877 28.3279L35.1494 28.4949Z" fill="black"/>
<path d="M9.5 32.5C10.3284 32.5 11 31.8284 11 31C11 30.1716 10.3284 29.5 9.5 29.5C8.67157 29.5 8 30.1716 8 31C8 31.8284 8.67157 32.5 9.5 32.5Z" fill="black"/>
<path d="M52.1599 32.5C52.9883 32.5 53.6599 31.8284 53.6599 31C53.6599 30.1716 52.9883 29.5 52.1599 29.5C51.3315 29.5 50.6599 30.1716 50.6599 31C50.6599 31.8284 51.3315 32.5 52.1599 32.5Z" fill="black"/>
</svg>
