<svg width="25" height="50" viewBox="0 0 25 50" fill="none" xmlns="http://www.w3.org/2000/svg">
<path d="M14.6649 11.8822C14.6649 12.394 14.6649 14.0618 14.6649 16.4314H22.8118L21.9285 23.6938H14.6649C14.6649 34.8938 14.6649 49.9023 14.6649 49.9023H5.02373C5.02373 49.9023 5.02373 35.0924 5.02373 23.6938H0V16.4314H5.02373C5.02373 13.5513 5.02373 11.5033 5.02373 10.9331C5.02373 8.21632 4.81904 6.92726 5.97344 4.82199C7.12842 2.71681 10.3862 -0.0658052 16.0209 0.00118699C21.6569 0.0706206 24.0326 0.612808 24.0326 0.612808L22.8118 8.35275C22.8118 8.35275 19.2129 7.40246 17.4464 7.74113C15.6822 8.0799 14.6649 9.16662 14.6649 11.8822Z" fill="#838383"/>
</svg>
