<svg width="30" height="30" viewBox="0 0 30 30" fill="none" xmlns="http://www.w3.org/2000/svg">
<g id="&#225;&#131;&#169;&#225;&#131;&#149;&#225;&#131;&#148;&#225;&#131;&#156;&#225;&#131;&#148;&#225;&#131;&#145;&#225;&#131;&#144;">
<path id="Vector" d="M4.49762 14.7079C6.1223 10.4896 10.2135 7.5 15 7.5V5C9.14551 5 4.14861 8.65834 2.16468 13.8093L4.49762 14.7079ZM15 7.5C19.7864 7.5 23.8776 10.4897 25.5022 14.7079L27.8352 13.8093C25.8512 8.65835 20.8544 5 15 5V7.5ZM25.5022 15.2921C23.8776 19.5104 19.7864 22.5 15 22.5V25C20.8544 25 25.8512 21.3416 27.8352 16.1907L25.5022 15.2921ZM15 22.5C10.2135 22.5 6.1223 19.5104 4.49762 15.2921L2.16468 16.1907C4.14861 21.3416 9.14551 25 15 25V22.5ZM25.5022 14.7079C25.5746 14.8956 25.5746 15.1044 25.5022 15.2921L27.8352 16.1907C28.1304 15.4245 28.1304 14.5755 27.8352 13.8093L25.5022 14.7079ZM2.16468 13.8093C1.86958 14.5755 1.86958 15.4245 2.16468 16.1907L4.49762 15.2921C4.42527 15.1044 4.42527 14.8956 4.49762 14.7079L2.16468 13.8093Z" fill="black"/>
<path id="Vector_2" d="M15 18.75C17.0711 18.75 18.75 17.0711 18.75 15C18.75 12.9289 17.0711 11.25 15 11.25C12.9289 11.25 11.25 12.9289 11.25 15C11.25 17.0711 12.9289 18.75 15 18.75Z" stroke="black" stroke-width="2" stroke-linecap="round" stroke-linejoin="round"/>
</g>
</svg>
